PERFORMER "comfort"
TITLE "mini mix test REC-2020-03-12"
FILE "01 mini mix test REC-2020-03-12.wav" WAVE
  TRACK 01 AUDIO
    PERFORMER "blizzard"
    TITLE "candy paint w_ trip-334342902.wav"
    INDEX 01 00:09:00
  TRACK 02 AUDIO
    TITLE "comfort - more than a memory"
    INDEX 01 01:26:00
  TRACK 03 AUDIO
    TITLE "comfort - ambeat"
    INDEX 01 02:50:00
  TRACK 04 AUDIO
    TITLE "cresylic - give up (w_ sinshei)-385741514.wav"
    INDEX 01 06:31:00
